The Insider*1999*[DVD5][PAL][ENG, POL, sub. ROM, TUR]

General information:
Country: USA
Release: 28 October 1999
Genre: Biography, Drama, Thriller 
Director: Michael Mann
Screenplay: Eric Roth, Michael Mann, Marie Brenner (article),
Original Music: Pieter Bourke, Lisa Gerrard
Cinematography by: Dante Spinotti
Duration: 2h 29mn
Language: English, Polish
Subtitles: English, Polish, Romanian, Turkish 
Rating: 7.6/10 - 14815 votes

Cast:
Al Pacino  ...  Lowell Bergman  
Russell Crowe  ...  Jeffrey Wigand  
Christopher Plummer  ...  Mike Wallace  
Diane Venora  ...  Liane Wigand  
Philip Baker Hall  ...  Don Hewitt  
Lindsay Crouse  ...  Sharon Tiller  
Debi Mazar  ...  Debbie De Luca  
Stephen Tobolowsky  ...  Eric Kluster  
Colm Feore  ...  Richard Scruggs  
Bruce McGill  ...  Ron Motley  
Gina Gershon  ...  Helen Caperelli  
Michael Gambon  ...  Thomas Sandefur  
Rip Torn  ...  John Scanlon  
Lynne Thigpen  ...  Mrs. Williams  
Hallie Kate Eisenberg  ...  Barbara Wigand  

Plot:
A research chemist comes under personal and professional attack when he decides to appear in a "60 Minutes" expose on Big Tobacco. 

Specifications:
General
Format                           : MPEG-PS
Overall bit rate                 : 4 082 Kbps

Video
Format                           : MPEG Video
Format version                   : Version 2
Format profile                   : Main@Main
Format settings, BVOP            : Yes
Format settings, Matrix          : Default
Bit rate mode                    : Variable
Bit rate                         : 3 361 Kbps
Nominal bit rate                 : 9 800 Kbps
Width                            : 720 pixels
Height                           : 576 pixels
Display aspect ratio             : 16:9
Frame rate                       : 25.000 fps
Standard                         : PAL

Audio 1
Format                           : AC-3
Format/Info                      : Audio Coding 3
Mode extension                   : CM (complete main)
Bit rate mode                    : Constant
Bit rate                         : 448 Kbps
Channel(s)                       : 6 channels
Channel positions                : Front: L C R, Side: L R, LFE
Sampling rate                    : 48.0 KHz
Video delay                      : -672ms
Stream size                      : 112 MiB (11%)

Audio 2
Format                           : AC-3
Format/Info                      : Audio Coding 3
Mode extension                   : CM (complete main)
Bit rate mode                    : Constant
Bit rate                         : 192 Kbps
Channel(s)                       : 2 channels
Channel positions                : Front: L R
Sampling rate                    : 48.0 KHz
Video delay                      : -640ms
Stream size                      : 48.2 MiB (5%)

Text 
Format                           : RLE
Format/Info                      : Run-length encoding
